
<svg xmlns="http://www.w3.org/2000/svg" width="222.37" height="222.366" viewBox="0 0 222.37 222.366">
  <g id="Layer_1" data-name="Layer 1" transform="translate(-217.57 -206.04)">
    <g id="Calendar" transform="translate(217.57 206.04)">
      <path id="Path_49116" data-name="Path 49116" d="M421.4,228.276H402.873v-7.412a14.824,14.824,0,0,0-29.648,0v7.412H343.577v-7.412a14.824,14.824,0,1,0-29.648,0v7.412H284.281v-7.412a14.824,14.824,0,1,0-29.648,0v7.412H236.1a18.531,18.531,0,0,0-18.532,18.532V395.051A18.531,18.531,0,0,0,236.1,413.582H339.873a3.708,3.708,0,1,0,0-7.415H236.1a11.153,11.153,0,0,1-11.12-11.12V280.156H432.524v63a3.708,3.708,0,1,0,7.415,0V246.8a18.531,18.531,0,0,0-18.532-18.532Zm-40.768-7.412a7.412,7.412,0,1,1,14.824,0V243.1a7.412,7.412,0,1,1-14.824,0Zm-59.3,0a7.412,7.412,0,1,1,14.824,0V243.1a7.412,7.412,0,1,1-14.824,0Zm-59.3,0a7.412,7.412,0,1,1,14.824,0V243.1a7.412,7.412,0,1,1-14.824,0Zm170.482,51.887H224.982V246.808a11.153,11.153,0,0,1,11.12-11.12h18.532V243.1a14.824,14.824,0,0,0,29.648,0v-7.412h29.648V243.1a14.824,14.824,0,0,0,29.648,0v-7.412h29.648V243.1a14.824,14.824,0,1,0,29.648,0v-7.412H421.4a11.153,11.153,0,0,1,11.12,11.12Z" transform="translate(-217.57 -206.04)" fill="#b18d32"/>
      <path id="Path_49117" data-name="Path 49117" d="M461.328,481.082a7.414,7.414,0,0,0-7.412-7.412H439.092a7.414,7.414,0,0,0-7.412,7.412V492.2a7.414,7.414,0,0,0,7.412,7.412h14.824a7.414,7.414,0,0,0,7.412-7.412ZM439.092,492.2v-11.12h14.824V492.2Z" transform="translate(-357.557 -381.019)" fill="#b18d32"/>
      <path id="Path_49118" data-name="Path 49118" d="M332.858,481.082a7.414,7.414,0,0,0-7.412-7.412H310.622a7.414,7.414,0,0,0-7.412,7.412V492.2a7.414,7.414,0,0,0,7.412,7.412h14.824a7.414,7.414,0,0,0,7.412-7.412ZM310.622,492.2v-11.12h14.824V492.2Z" transform="translate(-273.562 -381.019)" fill="#b18d32"/>
      <path id="Path_49119" data-name="Path 49119" d="M710.846,499.614a7.414,7.414,0,0,0,7.412-7.412v-11.12a7.414,7.414,0,0,0-7.412-7.412H696.022a7.414,7.414,0,0,0-7.412,7.412V492.2a7.414,7.414,0,0,0,7.412,7.412Zm-14.827-18.532h14.824V492.2H696.019Z" transform="translate(-525.54 -381.019)" fill="#b18d32"/>
      <path id="Path_49120" data-name="Path 49120" d="M461.328,577.432a7.414,7.414,0,0,0-7.412-7.412H439.092a7.414,7.414,0,0,0-7.412,7.412v11.12a7.414,7.414,0,0,0,7.412,7.412h14.824a7.414,7.414,0,0,0,7.412-7.412Zm-22.236,11.12v-11.12h14.824v11.12Z" transform="translate(-357.557 -444.013)" fill="#b18d32"/>
      <path id="Path_49121" data-name="Path 49121" d="M332.858,577.432a7.414,7.414,0,0,0-7.412-7.412H310.622a7.414,7.414,0,0,0-7.412,7.412v11.12a7.414,7.414,0,0,0,7.412,7.412h14.824a7.414,7.414,0,0,0,7.412-7.412Zm-22.236,11.12v-11.12h14.824v11.12Z" transform="translate(-273.562 -444.013)" fill="#b18d32"/>
      <path id="Path_49122" data-name="Path 49122" d="M453.916,666.37H439.092a7.414,7.414,0,0,0-7.412,7.412V684.9a7.414,7.414,0,0,0,7.412,7.412h14.824a7.414,7.414,0,0,0,7.412-7.412v-11.12A7.414,7.414,0,0,0,453.916,666.37ZM439.092,684.9v-11.12h14.824V684.9Z" transform="translate(-357.557 -507.007)" fill="#b18d32"/>
      <path id="Path_49123" data-name="Path 49123" d="M567.552,499.614h14.824a7.414,7.414,0,0,0,7.412-7.412v-11.12a7.414,7.414,0,0,0-7.412-7.412H567.552a7.414,7.414,0,0,0-7.412,7.412V492.2A7.414,7.414,0,0,0,567.552,499.614Zm0-18.532h14.824V492.2H567.552Z" transform="translate(-441.545 -381.019)" fill="#b18d32"/>
      <path id="Path_49124" data-name="Path 49124" d="M560.14,588.539a7.414,7.414,0,0,0,7.412,7.412,3.708,3.708,0,0,0,0-7.415v-11.12h14.824a3.708,3.708,0,1,0,0-7.415H567.552a7.414,7.414,0,0,0-7.412,7.412v11.12Z" transform="translate(-441.545 -444)" fill="#b18d32"/>
      <path id="Path_49125" data-name="Path 49125" d="M325.446,666.37H310.622a7.414,7.414,0,0,0-7.412,7.412V684.9a7.414,7.414,0,0,0,7.412,7.412h14.824a7.414,7.414,0,0,0,7.412-7.412v-11.12A7.414,7.414,0,0,0,325.446,666.37ZM310.622,684.9v-11.12h14.824V684.9Z" transform="translate(-273.562 -507.007)" fill="#b18d32"/>
      <path id="Path_49126" data-name="Path 49126" d="M629.73,570.02a48.18,48.18,0,1,0,48.18,48.18A48.18,48.18,0,0,0,629.73,570.02Zm0,88.947A40.768,40.768,0,1,1,670.5,618.2,40.766,40.766,0,0,1,629.73,658.967Z" transform="translate(-455.543 -444.013)" fill="#b18d32"/>
      <path id="Path_49127" data-name="Path 49127" d="M691.522,662.35l-28.827,28.827-13.1-13.1a3.707,3.707,0,0,0-5.241,5.241l15.721,15.724a3.707,3.707,0,0,0,5.241,0L696.76,667.6a3.707,3.707,0,0,0-5.241-5.241Z" transform="translate(-495.924 -503.701)" fill="#b18d32"/>
    </g>
  </g>
</svg>
