
<svg xmlns="http://www.w3.org/2000/svg" width="222.411" height="222.366" viewBox="0 0 222.411 222.366">
  <g id="Layer_1" data-name="Layer 1" transform="translate(-245.769 -211.29)">
    <path id="Path_49115" data-name="Path 49115" d="M253.94,280.785a110.152,110.152,0,1,0,.847-2.072M444.223,378.53l-5.71-5.706V359.535a3.731,3.731,0,0,0-.37-1.658L423.689,329.01V315.059a3.7,3.7,0,0,0-1.65-3.082l-11.12-7.412a3.713,3.713,0,0,0-2.964-.511l-13.618,3.4-22.869-9.814L368.322,275.6l8.722-8.718h18.721l6.3,9.47a3.722,3.722,0,0,0,2.476,1.6l22.236,3.708a3.679,3.679,0,0,0,1.78-.141l20.479-6.827a103.406,103.406,0,0,1-4.811,103.843ZM428.936,247.81l-6.024,4.019-16.8-3.36-10.9-3.626a3.646,3.646,0,0,0-2.069-.081L379.364,248.2l-6.039-2.013,4.478-8.955h12.534a3.736,3.736,0,0,0,1.658-.389l12.822-6.413A104.215,104.215,0,0,1,428.94,247.81Zm-112.55-20.83,8.9,5.928a3.679,3.679,0,0,0,1.451.57l17.958,2.994-1.754,5.244-9.359,3.123a3.7,3.7,0,0,0-2.006,1.606L320.93,264.181l-17.1,10.258-25.2,3.6a3.7,3.7,0,0,0-3.186,3.663v11.12a3.715,3.715,0,0,0,1.084,2.62l6.328,6.328v6.369l-15.416-10.28-5.591-16.778a104.354,104.354,0,0,1,54.538-54.1Zm-10.55,121.513-16.752-3.353-6.228-12.419v-8.711l13.81-13.81,5.11,10.224a3.707,3.707,0,0,0,3.316,2.05h23.846l10.039,16.734a3.709,3.709,0,0,0,3.175,1.8h10.3l-2.594,13-14.032,14.032a3.7,3.7,0,0,0-1.088,2.62v9.266L321.4,389.927a3.709,3.709,0,0,0-1.484,2.964v13.385l-4.611-1.528L308.8,388.469v-36.35a3.7,3.7,0,0,0-2.964-3.63Zm-11.142,56.969a103.745,103.745,0,0,1-36.96-113.29l3.079,9.236a3.715,3.715,0,0,0,1.458,1.913l18.477,12.315-4.215,4.219a3.7,3.7,0,0,0-1.084,2.62v11.12a3.737,3.737,0,0,0,.389,1.658l7.412,14.824a3.7,3.7,0,0,0,2.594,1.976l15.564,3.108v34.026a3.744,3.744,0,0,0,.263,1.377l7.412,18.532a3.7,3.7,0,0,0,2.272,2.139l11.12,3.708a3.592,3.592,0,0,0,1.151.192,3.707,3.707,0,0,0,3.708-3.708V394.749l13.34-10.006a3.709,3.709,0,0,0,1.484-2.964v-9.584l13.74-13.74a3.678,3.678,0,0,0,1.01-1.895l3.708-18.532a3.7,3.7,0,0,0-2.909-4.359,3.652,3.652,0,0,0-.725-.07H344.254l-10.039-16.734a3.709,3.709,0,0,0-3.175-1.8H307.386l-6.369-12.774a3.714,3.714,0,0,0-2.724-2,3.631,3.631,0,0,0-3.212,1.036l-4.811,4.792v-5.876a3.715,3.715,0,0,0-1.084-2.62l-6.328-6.328v-6.372l22.762-3.249a3.718,3.718,0,0,0,1.384-.492l18.532-11.12a3.72,3.72,0,0,0,1.269-1.269l10.413-17.355,9.817-3.275a3.658,3.658,0,0,0,2.342-2.342l3.708-11.12a3.7,3.7,0,0,0-2.357-4.681,3.948,3.948,0,0,0-.548-.137l-21.452-3.575-3.771-2.513a103.5,103.5,0,0,1,71.275,2.65l-6.772,3.379H375.512a3.706,3.706,0,0,0-3.334,2.05L364.766,246.7a3.7,3.7,0,0,0,1.661,4.97,3.876,3.876,0,0,0,.481.2l11.12,3.708a3.646,3.646,0,0,0,2.069.081l13.781-3.441,10.095,3.36a2.622,2.622,0,0,0,.444.118l18.532,3.708a3.681,3.681,0,0,0,2.783-.548l8.433-5.625a104.848,104.848,0,0,1,11.15,14.894L427.082,274.2l-19.742-3.29-6.524-9.784a3.71,3.71,0,0,0-3.064-1.65H375.516a3.715,3.715,0,0,0-2.62,1.084l-11.12,11.12a3.7,3.7,0,0,0-1.047,3.145l3.708,25.944a3.7,3.7,0,0,0,2.224,2.879l25.944,11.12a3.66,3.66,0,0,0,2.357.189l13.233-3.308,8.089,5.4v12.841a3.729,3.729,0,0,0,.37,1.658l14.454,28.868v13.951a3.715,3.715,0,0,0,1.084,2.62l7.753,7.756A103.744,103.744,0,0,1,294.7,405.469Z" fill="#b18d32"/>
  </g>
</svg>
