
<svg xmlns="http://www.w3.org/2000/svg" width="222.371" height="153.824" viewBox="0 0 222.371 153.824">
  <g id="Layer_1" data-name="Layer 1" transform="translate(-117.57 -251.443)">
    <g id="Group_46299" data-name="Group 46299" transform="translate(117.57 251.443)">
      <path id="Path_49128" data-name="Path 49128" d="M336.57,328.457a3.454,3.454,0,0,0,3.371-3.184v-40.84a3.482,3.482,0,0,0-3.371-3.371h-8.992l-3.934-26.79a3.245,3.245,0,0,0-3.746-2.809l-50.769,7.495h-.187L120.566,281.253s-2.809.562-2.809,3.184v40.653a3.454,3.454,0,0,0,3.184,3.371,14.8,14.8,0,1,1,0,29.6,3.454,3.454,0,0,0-3.371,3.184V401.9a3.482,3.482,0,0,0,3.371,3.371H336.385a3.482,3.482,0,0,0,3.371-3.371V361.43a3.454,3.454,0,0,0-3.184-3.371,14.8,14.8,0,0,1,0-29.6h0Zm-69.88-62.385,1.312,8.8a3.218,3.218,0,0,0,3.184,2.809h.562a3.245,3.245,0,0,0,2.809-3.746l-1.312-8.8,44.4-6.558,3.371,22.669H165.337L266.69,266.073Zm66.693,98.354V398.9H284.861V389.9a3.371,3.371,0,0,0-6.742,0V398.9H124.5v-34.47a21.329,21.329,0,0,0,0-42.152V287.8H278.306v8.8a3.371,3.371,0,1,0,6.742,0v-8.992h48.522v34.47a21.351,21.351,0,0,0-17.8,24.354,20.672,20.672,0,0,0,17.611,17.986Z" transform="translate(-117.57 -251.443)" fill="#b18d32"/>
      <path id="Path_49129" data-name="Path 49129" d="M729.091,618.39a3.454,3.454,0,0,0-3.371,3.184v21.732a3.371,3.371,0,0,0,6.742,0V621.761a3.357,3.357,0,0,0-3.371-3.371Z" transform="translate(-565.171 -521.518)" fill="#b18d32"/>
      <path id="Path_49130" data-name="Path 49130" d="M729.091,473.62a3.454,3.454,0,0,0-3.371,3.184v21.732a3.371,3.371,0,1,0,6.742,0V476.8A3.322,3.322,0,0,0,729.091,473.62Z" transform="translate(-565.171 -414.966)" fill="#b18d32"/>
      <path id="Path_49131" data-name="Path 49131" d="M269.241,475.215h40.653a3.357,3.357,0,0,0,3.371-3.371,3.2,3.2,0,0,0-3.371-3.184H269.241a3.357,3.357,0,0,0-3.371,3.371A3.2,3.2,0,0,0,269.241,475.215Z" transform="translate(-226.72 -411.316)" fill="#b18d32"/>
      <path id="Path_49132" data-name="Path 49132" d="M350.549,547.42H269.241a3.371,3.371,0,0,0,0,6.742h81.308a3.371,3.371,0,0,0,0-6.742Z" transform="translate(-226.72 -469.284)" fill="#b18d32"/>
      <path id="Path_49133" data-name="Path 49133" d="M350.549,626.19H269.241a3.371,3.371,0,0,0,0,6.742h81.308a3.371,3.371,0,0,0,0-6.742Z" transform="translate(-226.72 -527.259)" fill="#b18d32"/>
      <path id="Path_49134" data-name="Path 49134" d="M350.549,704.97H269.241a3.371,3.371,0,1,0,0,6.742h81.308a3.371,3.371,0,1,0,0-6.742Z" transform="translate(-226.72 -585.241)" fill="#b18d32"/>
    </g>
  </g>
</svg>
